<mxfile host="app.diagrams.net" modified="2024-04-15T04:52:44.968Z" agent="Mozilla/5.0 (Windows NT 10.0; Win64; x64) AppleWebKit/537.36 (KHTML, like Gecko) Chrome/123.0.0.0 Safari/537.36 Edg/123.0.0.0" etag="HMIp8YPmDDH6FH7_caAb" version="24.2.3" type="device">
  <diagram name="Page-1" id="lblzQQf2lHCcTTfp1Ciy">
    <mxGraphModel dx="605" dy="1203" grid="0" gridSize="10" guides="1" tooltips="1" connect="1" arrows="1" fold="1" page="0" pageScale="1" pageWidth="850" pageHeight="1100" math="0" shadow="0">
      <root>
        <mxCell id="0" />
        <mxCell id="1" parent="0" />
        <mxCell id="Hd8p3n1eu1CV1Rl4D6Sz-1" value="React to Post" style="ellipse;whiteSpace=wrap;html=1;" vertex="1" parent="1">
          <mxGeometry x="189" y="-36" width="140" height="63" as="geometry" />
        </mxCell>
        <mxCell id="Hd8p3n1eu1CV1Rl4D6Sz-3" value="View Post" style="ellipse;whiteSpace=wrap;html=1;" vertex="1" parent="1">
          <mxGeometry x="191" y="133" width="140" height="63" as="geometry" />
        </mxCell>
        <mxCell id="Hd8p3n1eu1CV1Rl4D6Sz-6" value="Extends" style="endArrow=block;endSize=16;endFill=0;html=1;rounded=0;fontSize=12;curved=1;exitX=0.436;exitY=1.016;exitDx=0;exitDy=0;exitPerimeter=0;" edge="1" parent="1" source="Hd8p3n1eu1CV1Rl4D6Sz-3">
          <mxGeometry width="160" relative="1" as="geometry">
            <mxPoint x="189" y="251" as="sourcePoint" />
            <mxPoint x="248" y="302" as="targetPoint" />
          </mxGeometry>
        </mxCell>
        <mxCell id="Hd8p3n1eu1CV1Rl4D6Sz-7" value="Extends" style="endArrow=block;endSize=16;endFill=0;html=1;rounded=0;fontSize=12;curved=1;exitX=0.436;exitY=1.016;exitDx=0;exitDy=0;exitPerimeter=0;" edge="1" parent="1">
          <mxGeometry width="160" relative="1" as="geometry">
            <mxPoint x="263" y="28" as="sourcePoint" />
            <mxPoint x="259" y="133" as="targetPoint" />
          </mxGeometry>
        </mxCell>
        <mxCell id="Hd8p3n1eu1CV1Rl4D6Sz-8" value="Create Post" style="ellipse;whiteSpace=wrap;html=1;" vertex="1" parent="1">
          <mxGeometry x="182" y="302" width="140" height="63" as="geometry" />
        </mxCell>
        <mxCell id="Hd8p3n1eu1CV1Rl4D6Sz-9" value="Edit Post" style="ellipse;whiteSpace=wrap;html=1;" vertex="1" parent="1">
          <mxGeometry x="329" y="587" width="140" height="63" as="geometry" />
        </mxCell>
        <mxCell id="Hd8p3n1eu1CV1Rl4D6Sz-10" value="Extends" style="endArrow=block;endSize=16;endFill=0;html=1;rounded=0;fontSize=12;curved=1;entryX=0.455;entryY=0.995;entryDx=0;entryDy=0;entryPerimeter=0;exitX=0.5;exitY=0;exitDx=0;exitDy=0;" edge="1" parent="1" source="Hd8p3n1eu1CV1Rl4D6Sz-9" target="Hd8p3n1eu1CV1Rl4D6Sz-8">
          <mxGeometry width="160" relative="1" as="geometry">
            <mxPoint x="324" y="496" as="sourcePoint" />
            <mxPoint x="285" y="483" as="targetPoint" />
          </mxGeometry>
        </mxCell>
        <mxCell id="Hd8p3n1eu1CV1Rl4D6Sz-11" value="User" style="shape=umlActor;verticalLabelPosition=bottom;verticalAlign=top;html=1;" vertex="1" parent="1">
          <mxGeometry x="633" y="21" width="30" height="77" as="geometry" />
        </mxCell>
        <mxCell id="Hd8p3n1eu1CV1Rl4D6Sz-12" value="Edit Post" style="ellipse;whiteSpace=wrap;html=1;" vertex="1" parent="1">
          <mxGeometry x="368" y="384" width="140" height="63" as="geometry" />
        </mxCell>
        <mxCell id="Hd8p3n1eu1CV1Rl4D6Sz-13" value="Extends" style="endArrow=block;endSize=16;endFill=0;html=1;rounded=0;fontSize=12;curved=1;entryX=0.802;entryY=0.974;entryDx=0;entryDy=0;entryPerimeter=0;exitX=0.445;exitY=0.053;exitDx=0;exitDy=0;exitPerimeter=0;" edge="1" parent="1" source="Hd8p3n1eu1CV1Rl4D6Sz-12" target="Hd8p3n1eu1CV1Rl4D6Sz-8">
          <mxGeometry width="160" relative="1" as="geometry">
            <mxPoint x="466" y="398" as="sourcePoint" />
            <mxPoint x="376" y="219" as="targetPoint" />
          </mxGeometry>
        </mxCell>
        <mxCell id="Hd8p3n1eu1CV1Rl4D6Sz-15" value="Blogger" style="shape=umlActor;verticalLabelPosition=bottom;verticalAlign=top;html=1;" vertex="1" parent="1">
          <mxGeometry x="629" y="219" width="30" height="77" as="geometry" />
        </mxCell>
        <mxCell id="Hd8p3n1eu1CV1Rl4D6Sz-16" value="" style="endArrow=none;html=1;rounded=0;fontSize=12;startSize=8;endSize=8;curved=1;" edge="1" parent="1" target="Hd8p3n1eu1CV1Rl4D6Sz-11">
          <mxGeometry width="50" height="50" relative="1" as="geometry">
            <mxPoint x="329" y="-9" as="sourcePoint" />
            <mxPoint x="379" y="-59" as="targetPoint" />
          </mxGeometry>
        </mxCell>
        <mxCell id="Hd8p3n1eu1CV1Rl4D6Sz-17" value="" style="endArrow=none;html=1;rounded=0;fontSize=12;startSize=8;endSize=8;curved=1;" edge="1" parent="1" target="Hd8p3n1eu1CV1Rl4D6Sz-11">
          <mxGeometry width="50" height="50" relative="1" as="geometry">
            <mxPoint x="333" y="163" as="sourcePoint" />
            <mxPoint x="383" y="113" as="targetPoint" />
          </mxGeometry>
        </mxCell>
        <mxCell id="Hd8p3n1eu1CV1Rl4D6Sz-18" value="" style="endArrow=none;html=1;rounded=0;fontSize=12;startSize=8;endSize=8;curved=1;entryX=0.444;entryY=0.203;entryDx=0;entryDy=0;entryPerimeter=0;" edge="1" parent="1" target="Hd8p3n1eu1CV1Rl4D6Sz-15">
          <mxGeometry width="50" height="50" relative="1" as="geometry">
            <mxPoint x="322" y="329" as="sourcePoint" />
            <mxPoint x="622" y="230" as="targetPoint" />
            <Array as="points">
              <mxPoint x="467" y="279" />
            </Array>
          </mxGeometry>
        </mxCell>
        <mxCell id="Hd8p3n1eu1CV1Rl4D6Sz-19" value="" style="endArrow=none;html=1;rounded=0;fontSize=12;startSize=8;endSize=8;curved=1;entryX=0.467;entryY=0.325;entryDx=0;entryDy=0;entryPerimeter=0;exitX=0.798;exitY=0.011;exitDx=0;exitDy=0;exitPerimeter=0;" edge="1" parent="1" source="Hd8p3n1eu1CV1Rl4D6Sz-12" target="Hd8p3n1eu1CV1Rl4D6Sz-15">
          <mxGeometry width="50" height="50" relative="1" as="geometry">
            <mxPoint x="332" y="339" as="sourcePoint" />
            <mxPoint x="640" y="262" as="targetPoint" />
            <Array as="points" />
          </mxGeometry>
        </mxCell>
        <mxCell id="Hd8p3n1eu1CV1Rl4D6Sz-20" value="" style="endArrow=none;html=1;rounded=0;fontSize=12;startSize=8;endSize=8;curved=1;exitX=0.719;exitY=0.016;exitDx=0;exitDy=0;exitPerimeter=0;" edge="1" parent="1" source="Hd8p3n1eu1CV1Rl4D6Sz-9" target="Hd8p3n1eu1CV1Rl4D6Sz-15">
          <mxGeometry width="50" height="50" relative="1" as="geometry">
            <mxPoint x="402" y="575" as="sourcePoint" />
            <mxPoint x="722" y="481" as="targetPoint" />
            <Array as="points" />
          </mxGeometry>
        </mxCell>
      </root>
    </mxGraphModel>
  </diagram>
</mxfile>
